- 
http://www.Speed.Cd      fast  and The Hottest Private Tracker on the net

   signup is open now

Please Seed back to make the speed Faster!!!

------------------nfo--------------------------
-








































          
          
              
              
                    
                    
                    
                    

In.Time.2011.R5.LiNE.XviD-SiC

Poster:
[IMG]http://img502.imageshack.us/img502/8201/mv5bmja3nzi1odc1mv5bml5.jpg[/IMG]

IMDB Link: 
http://www.imdb.com/title/tt1637688/

Description:
In a future where people stop aging at 25, but are engineered to live only one more year, having the means to buy your way out of the situation is a shot at immortal youth. Here, Will Salas finds himself accused of murder and on the run with a hostage - a connection that becomes an important part of the way against the system. 

MediaInfo:
General
Complete name                    : In.Time.2011.R5.LiNE.XviD-SiC.avi
Format                           : AVI
Format/Info                      : Audio Video Interleave
File size                        : 1.37 GiB
Duration                         : 1h 44mn
Overall bit rate                 : 1 872 Kbps
Writing library                  : VirtualDub build 32839/release

Video
ID                               : 0
Format                           : MPEG-4 Visual
Format profile                   : Advanced Simple@L5
Format settings, BVOP            : Yes
Format settings, QPel            : No
Format settings, GMC             : No warppoints
Format settings, Matrix          : Default (MPEG)
Muxing mode                      : Packed bitstream
Codec ID                         : XVID
Codec ID/Hint                    : XviD
Duration                         : 1h 44mn
Bit rate                         : 1 734 Kbps
Width                            : 720 pixels
Height                           : 304 pixels
Display aspect ratio             : 2.35:1
Frame rate                       : 25.000 fps
Color space                      : YUV
Chroma subsampling               : 4:2:0
Bit depth                        : 8 bits
Scan type                        : Progressive
Bits/(Pixel*Frame)               : 0.317
Stream size                      : 1.27 GiB (93%)
Writing library                  : XviD 64

Audio
ID                               : 1
Format                           : MPEG Audio
Format version                   : Version 1
Format profile                   : Layer 3
Codec ID                         : 55
Codec ID/Hint                    : MP3
Duration                         : 1h 44mn
Bit rate mode                    : Constant
Bit rate                         : 128 Kbps
Channel(s)                       : 2 channels
Sampling rate                    : 44.1 KHz
Stream size                      : 95.9 MiB (7%)
Alignment                        : Split accross interleaves
Interleave, duration             : 40 ms (1.00 video frame)
Interleave, preload duration     : 500 ms


Screenshots:
[IMG]http://img35.imageshack.us/img35/8384/snap1f.png[/IMG]
[IMG]http://img221.imageshack.us/img221/600/snap2eushtny.png[/IMG]
[IMG]http://img850.imageshack.us/img850/4190/snap3r.png[/IMG]
[IMG]http://img833.imageshack.us/img833/844/snap4a.png[/IMG]
[IMG]http://img696.imageshack.us/img696/9405/snap5a.png[/IMG]

Note : Did the usual stuff, turned out nice!

Source: ELEKTRI4KA thnx MiSTERE thnx

Enjoy!

Respects to T00NG0D, ELEKTRI4KA, PA, YeFsTe, Box, MrRep and everyone in the struggle...